# xmcd
#
# Track frame offsets:
#	150
#	12065
#	21470
#	34292
#	45292
#	57347
#	64562
#	75382
#	87635
#	98177
#	109067
#	118575
#	128392
#	138792
#	149235
#	163202
#
# Disc length: 2311 seconds
#
# Revision: 0
# Processed by: cddbd v1.4b41PL2 Copyright (c) Steve Scherf et al.
# Submitted via: EZCDDA 4.3.3.2
#
DISCID=d4090510
DTITLE=Bill Monroe - American Traveller - Deluxe Instrumentals
DYEAR=1900
DGENRE=
TTITLE0=Roanoke
TTITLE1=Panhandle Country
TTITLE2=Cheyenne
TTITLE3=Brown County Breakdown
TTITLE4=Pike County Breakdown
TTITLE5=Big Ball In Brooklyn
TTITLE6=Big Sandy River
TTITLE7=Crossing The Cumberlands
TTITLE8=Louisville Breakdown
TTITLE9=Salt Creek
TTITLE10=Tallahassee
TTITLE11=Texas Gallop
TTITLE12=Going Up Caney
TTITLE13=Shenandoah Breakdown
TTITLE14=Kentucky Mandolin
TTITLE15=Ashland Breakdown
EXTD=
EXTT0=
EXTT1=
EXTT2=
EXTT3=
EXTT4=
EXTT5=
EXTT6=
EXTT7=
EXTT8=
EXTT9=
EXTT10=
EXTT11=
EXTT12=
EXTT13=
EXTT14=
EXTT15=
PLAYORDER=
